<svg xmlns:ev="http://www.w3.org/2001/xml-events" viewBox="0 0 2255 2391" xmlns="http://www.w3.org/2000/svg" xmlns:xlink="http://www.w3.org/1999/xlink" width="2255" height="2391"><defs/><g transform="translate(5.5,5.5)" id="page1"><rect x="0" y="0" width="2245" height="2381" fill="none"/><g transform="translate(421.657000,1156.050000)" id="shape1"><path stroke-width="3" fill-rule="nonzero" stroke="#467dfe" d="M34.5,.0L244.7,.0C263.8,.0,279.2,15.4,279.2,34.5C279.2,53.6,263.8,69.0,244.7,69.0L34.5,69.0C15.4,69.0,.0,53.6,.0,34.5C.0,15.4,15.4,.0,34.5,.0z" fill="#467dfe"/><text xml:space="preserve" style="fill:#ffffff;font-family:微软雅黑,PingFang SC,Mircrosoft YaHei,Arial;font-size:18.00pt;font-weight:bold"><tspan x="33.8" y="43.8" style="font-family:微软雅黑,PingFang SC,Mircrosoft YaHei,Arial">CUUG公开课的大纲</tspan></text></g><path stroke-width="3" stroke="#454545" transform="translate(662.56,1190.55)" d="M38.3,.0C59.8,.0,80.6,.0,101.3,.0" id="shape2" stroke-linecap="round" fill="none"/><path stroke-width="1" stroke="#454545" transform="translate(1003.36,1012.82)" d="M-12.5,177.7C5.0,177.7,-12.5,-177.7,12.5,-177.7" id="shape3" stroke-linecap="round" fill="none"/><path stroke-width="1" stroke="#454545" transform="translate(1131.36,539.95)" d="M-12.5,295.1C5.0,295.1,-12.5,-295.1,12.5,-295.1" id="shape4" stroke-linecap="round" fill="none"/><path stroke-width="1" stroke="#454545" transform="translate(1131.36,784.52)" d="M-12.5,50.6C5.0,50.6,-12.5,-50.6,12.5,-50.6" id="shape5" stroke-linecap="round" fill="none"/><path stroke-width="1" stroke="#454545" transform="translate(1244.36,539.63)" d="M-12.5,194.3C5.0,194.3,-12.5,-194.3,12.5,-194.3" id="shape6" stroke-linecap="round" fill="none"/><path stroke-width="1" stroke="#454545" transform="translate(1244.36,620.02)" d="M-12.5,113.9C5.0,113.9,-12.5,-113.9,12.5,-113.9" id="shape7" stroke-linecap="round" fill="none"/><path stroke-width="1" stroke="#454545" transform="translate(1244.36,705.45)" d="M-12.5,28.5C3.4,28.5,-8.7,-28.5,12.5,-28.5" id="shape8" stroke-linecap="round" fill="none"/><path stroke-width="1" stroke="#454545" transform="translate(1244.36,805.95)" d="M-12.5,-72.0C5.0,-72.0,-12.5,72.0,12.5,72.0" id="shape9" stroke-linecap="round" fill="none"/><path stroke-width="1" stroke="#454545" transform="translate(1244.36,928.27)" d="M-12.5,-194.3C5.0,-194.3,-12.5,194.3,12.5,194.3" id="shape10" stroke-linecap="round" fill="none"/><path stroke-width="1" stroke="#454545" transform="translate(1352.36,852.82)" d="M-12.5,25.1C2.8,25.1,-7.4,-25.1,12.5,-25.1" id="shape11" stroke-linecap="round" fill="none"/><path stroke-width="1" stroke="#454545" transform="translate(1352.36,903.07)" d="M-12.5,-25.1C2.8,-25.1,-7.4,25.1,12.5,25.1" id="shape12" stroke-linecap="round" fill="none"/><path stroke-width="1" stroke="#454545" transform="translate(1426.36,898.05)" d="M-12.5,30.1C3.6,30.1,-9.2,-30.1,12.5,-30.1" id="shape13" stroke-linecap="round" fill="none"/><path stroke-width="1" stroke="#454545" transform="translate(1553.36,867.90)" d="M-12.5,.0C-2.5,.0,5.0,.0,12.5,.0" id="shape14" stroke-linecap="round" fill="none"/><path stroke-width="1" stroke="#454545" transform="translate(1426.36,918.15)" d="M-12.5,10.0C-0.2,10.0,-0.4,-10.0,12.5,-10.0" id="shape15" stroke-linecap="round" fill="none"/><path stroke-width="1" stroke="#454545" transform="translate(1350.36,1075.65)" d="M-12.5,46.9C5.0,46.9,-12.4,-47.0,12.5,-47.0" id="shape16" stroke-linecap="round" fill="none"/><path stroke-width="1" stroke="#454545" transform="translate(1350.36,1169.55)" d="M-12.5,-47.0C5.0,-47.0,-12.4,47.0,12.5,47.0" id="shape17" stroke-linecap="round" fill="none"/><path stroke-width="1" stroke="#454545" transform="translate(1456.36,1142.20)" d="M-12.5,74.3C5.0,74.3,-12.5,-74.3,12.5,-74.3" id="shape18" stroke-linecap="round" fill="none"/><path stroke-width="1" stroke="#454545" transform="translate(1456.36,1161.80)" d="M-12.5,54.7C5.0,54.7,-12.5,-54.7,12.5,-54.7" id="shape19" stroke-linecap="round" fill="none"/><path stroke-width="1" stroke="#454545" transform="translate(1456.36,1181.90)" d="M-12.5,34.6C4.1,34.6,-10.5,-34.6,12.5,-34.6" id="shape20" stroke-linecap="round" fill="none"/><path stroke-width="1" stroke="#454545" transform="translate(1456.36,1202.00)" d="M-12.5,14.5C.8,14.5,-2.7,-14.5,12.5,-14.5" id="shape21" stroke-linecap="round" fill="none"/><path stroke-width="1" stroke="#454545" transform="translate(1456.36,1241.10)" d="M-12.5,-24.6C2.7,-24.6,-7.2,24.6,12.5,24.6" id="shape22" stroke-linecap="round" fill="none"/><path stroke-width="1" stroke="#454545" transform="translate(1456.36,1261.20)" d="M-12.5,-44.7C4.9,-44.7,-12.3,44.7,12.5,44.7" id="shape23" stroke-linecap="round" fill="none"/><path stroke-width="1" stroke="#454545" transform="translate(1003.36,1368.28)" d="M-12.5,-177.7C5.0,-177.7,-12.5,177.7,12.5,177.7" id="shape24" stroke-linecap="round" fill="none"/><path stroke-width="1" stroke="#454545" transform="translate(1077.36,1515.85)" d="M-12.5,30.1C3.6,30.1,-9.2,-30.2,12.5,-30.2" id="shape25" stroke-linecap="round" fill="none"/><path stroke-width="1" stroke="#454545" transform="translate(1205.36,254.85)" d="M-12.5,-10.1C-0.2,-10.1,-0.4,10.1,12.5,10.1" id="shape26" stroke-linecap="round" fill="none"/><path stroke-width="1" stroke="#454545" transform="translate(1205.36,234.75)" d="M-12.5,10.1C-0.2,10.1,-0.4,-10.0,12.5,-10.0" id="shape27" stroke-linecap="round" fill="none"/><path stroke-width="1" stroke="#454545" transform="translate(1322.36,325.20)" d="M-12.5,20.1C1.9,20.1,-5.3,-20.1,12.5,-20.1" id="shape28" stroke-linecap="round" fill="none"/><path stroke-width="1" stroke="#454545" transform="translate(1322.36,365.40)" d="M-12.5,-20.1C1.9,-20.1,-5.3,20.1,12.5,20.1" id="shape29" stroke-linecap="round" fill="none"/><path stroke-width="1" stroke="#454545" transform="translate(1396.36,365.40)" d="M-12.5,20.1C1.9,20.1,-5.3,-20.1,12.5,-20.1" id="shape30" stroke-linecap="round" fill="none"/><path stroke-width="1" stroke="#454545" transform="translate(1396.36,385.50)" d="M-12.5,.0C-2.5,.0,5.0,.0,12.5,.0" id="shape31" stroke-linecap="round" fill="none"/><path stroke-width="1" stroke="#454545" transform="translate(1077.36,1535.95)" d="M-12.5,10.0C-0.2,10.0,-0.4,-10.0,12.5,-10.0" id="shape32" stroke-linecap="round" fill="none"/><path stroke-width="1" stroke="#454545" transform="translate(1359.36,486.00)" d="M-12.5,20.1C1.9,20.1,-5.3,-20.1,12.5,-20.1" id="shape33" stroke-linecap="round" fill="none"/><path stroke-width="1" stroke="#454545" transform="translate(1359.36,526.20)" d="M-12.5,-20.1C1.9,-20.1,-5.3,20.1,12.5,20.1" id="shape34" stroke-linecap="round" fill="none"/><path stroke-width="1" stroke="#454545" transform="translate(1077.36,1556.05)" d="M-12.5,-10.0C-0.2,-10.0,-0.4,10.1,12.5,10.1" id="shape35" stroke-linecap="round" fill="none"/><path stroke-width="1" stroke="#454545" transform="translate(1307.36,1566.10)" d="M-12.5,.0C-2.5,.0,5.0,.0,12.5,.0" id="shape36" stroke-linecap="round" fill="none"/><path stroke-width="1" stroke="#454545" transform="translate(1231.36,1415.35)" d="M-12.5,10.0C-0.2,10.0,-0.4,-10.0,12.5,-10.0" id="shape37" stroke-linecap="round" fill="none"/><path stroke-width="1" stroke="#454545" transform="translate(1231.36,1435.45)" d="M-12.5,-10.0C-0.2,-10.0,-0.4,10.1,12.5,10.1" id="shape38" stroke-linecap="round" fill="none"/><path stroke-width="1" stroke="#454545" transform="translate(1077.36,1576.15)" d="M-12.5,-30.2C3.6,-30.2,-9.2,30.2,12.5,30.2" id="shape39" stroke-linecap="round" fill="none"/><path stroke-width="1" stroke="#454545" transform="translate(1216.36,1485.70)" d="M-12.5,.0C-2.5,.0,5.0,.0,12.5,.0" id="shape40" stroke-linecap="round" fill="none"/><path stroke-width="1" stroke="#454545" transform="translate(1216.36,1525.90)" d="M-12.5,.0C-2.5,.0,5.0,.0,12.5,.0" id="shape41" stroke-linecap="round" fill="none"/><path stroke-width="1" stroke="#454545" transform="translate(1532.99,1067.90)" d="M-12.5,.0C-2.5,.0,5.0,.0,12.5,.0" id="shape42" stroke-linecap="round" fill="none"/><path stroke-width="1" stroke="#454545" transform="translate(1532.46,1107.10)" d="M-12.5,.0C-2.5,.0,5.0,.0,12.5,.0" id="shape43" stroke-linecap="round" fill="none"/><path stroke-width="1" stroke="#454545" transform="translate(1131.36,1130.25)" d="M-12.5,-295.2C5.0,-295.2,-12.5,295.1,12.5,295.1" id="shape44" stroke-linecap="round" fill="none"/><path stroke-width="1" stroke="#454545" transform="translate(1472.36,345.30)" d="M-12.5,.0C-2.5,.0,5.0,.0,12.5,.0" id="shape45" stroke-linecap="round" fill="none"/><path stroke-width="1" stroke="#454545" transform="translate(1471.36,385.50)" d="M-12.5,.0C-2.5,.0,5.0,.0,12.5,.0" id="shape46" stroke-linecap="round" fill="none"/><path stroke-width="1" stroke="#454545" transform="translate(1433.36,526.20)" d="M-12.5,20.1C1.9,20.1,-5.3,-20.1,12.5,-20.1" id="shape47" stroke-linecap="round" fill="none"/><path stroke-width="1" stroke="#454545" transform="translate(1433.36,546.30)" d="M-12.5,.0C-2.5,.0,5.0,.0,12.5,.0" id="shape48" stroke-linecap="round" fill="none"/><path stroke-width="1" stroke="#454545" transform="translate(1325.36,651.82)" d="M-12.5,25.1C2.8,25.1,-7.4,-25.1,12.5,-25.1" id="shape49" stroke-linecap="round" fill="none"/><path stroke-width="1" stroke="#454545" transform="translate(1325.36,702.07)" d="M-12.5,-25.1C2.8,-25.1,-7.4,25.1,12.5,25.1" id="shape50" stroke-linecap="round" fill="none"/><path stroke-width="1" stroke="#454545" transform="translate(1399.36,697.05)" d="M-12.5,30.1C3.6,30.1,-9.2,-30.1,12.5,-30.1" id="shape51" stroke-linecap="round" fill="none"/><path stroke-width="1" stroke="#454545" transform="translate(1399.36,717.15)" d="M-12.5,10.0C-0.2,10.0,-0.4,-10.0,12.5,-10.0" id="shape52" stroke-linecap="round" fill="none"/><path stroke-width="1" stroke="#454545" transform="translate(1426.36,938.25)" d="M-12.5,-10.1C-0.2,-10.1,-0.4,10.1,12.5,10.1" id="shape53" stroke-linecap="round" fill="none"/><path stroke-width="1" stroke="#454545" transform="translate(1396.36,405.60)" d="M-12.5,-20.1C1.9,-20.1,-5.3,20.1,12.5,20.1" id="shape54" stroke-linecap="round" fill="none"/><path stroke-width="1" stroke="#454545" transform="translate(1486.36,425.70)" d="M-12.5,.0C-2.5,.0,5.0,.0,12.5,.0" id="shape55" stroke-linecap="round" fill="none"/><path stroke-width="1" stroke="#454545" transform="translate(1433.36,566.40)" d="M-12.5,-20.1C1.9,-20.1,-5.3,20.1,12.5,20.1" id="shape56" stroke-linecap="round" fill="none"/><path stroke-width="1" stroke="#454545" transform="translate(1545.36,586.50)" d="M-12.5,.0C-2.5,.0,5.0,.0,12.5,.0" id="shape57" stroke-linecap="round" fill="none"/><path stroke-width="1" stroke="#454545" transform="translate(1513.36,707.10)" d="M-12.5,.0C-2.5,.0,5.0,.0,12.5,.0" id="shape58" stroke-linecap="round" fill="none"/><path stroke-width="1" stroke="#454545" transform="translate(1399.36,737.25)" d="M-12.5,-10.1C-0.2,-10.1,-0.4,10.1,12.5,10.1" id="shape59" stroke-linecap="round" fill="none"/><path stroke-width="1" stroke="#454545" transform="translate(1534.36,747.30)" d="M-12.5,.0C-2.5,.0,5.0,.0,12.5,.0" id="shape60" stroke-linecap="round" fill="none"/><path stroke-width="1" stroke="#454545" transform="translate(1399.36,757.35)" d="M-12.5,-30.2C3.6,-30.2,-9.2,30.2,12.5,30.2" id="shape61" stroke-linecap="round" fill="none"/><path stroke-width="1" stroke="#454545" transform="translate(1518.36,787.50)" d="M-12.5,.0C-2.5,.0,5.0,.0,12.5,.0" id="shape62" stroke-linecap="round" fill="none"/><path stroke-width="1" stroke="#454545" transform="translate(1541.36,948.30)" d="M-12.5,.0C-2.5,.0,5.0,.0,12.5,.0" id="shape63" stroke-linecap="round" fill="none"/><path stroke-width="1" stroke="#454545" transform="translate(1426.36,958.35)" d="M-12.5,-30.2C3.6,-30.2,-9.2,30.2,12.5,30.2" id="shape64" stroke-linecap="round" fill="none"/><path stroke-width="1" stroke="#454545" transform="translate(1583.36,988.50)" d="M-12.5,.0C-2.5,.0,5.0,.0,12.5,.0" id="shape65" stroke-linecap="round" fill="none"/><path stroke-width="1" stroke="#454545" transform="translate(1596.43,1147.30)" d="M-12.5,.0C-2.5,.0,5.0,.0,12.5,.0" id="shape66" stroke-linecap="round" fill="none"/><path stroke-width="1" stroke="#454545" transform="translate(1535.36,1265.70)" d="M-12.5,.0C-2.5,.0,5.0,.0,12.5,.0" id="shape67" stroke-linecap="round" fill="none"/><path stroke-width="1" stroke="#454545" transform="translate(1456.36,1290.80)" d="M-12.5,-74.3C5.0,-74.3,-12.5,74.3,12.5,74.3" id="shape68" stroke-linecap="round" fill="none"/><path stroke-width="1" stroke="#454545" transform="translate(1531.36,1365.10)" d="M-12.5,.0C-2.5,.0,5.0,.0,12.5,.0" id="shape69" stroke-linecap="round" fill="none"/><path stroke-width="1" stroke="#454545" transform="translate(1242.36,1606.30)" d="M-12.5,.0C-2.5,.0,5.0,.0,12.5,.0" id="shape70" stroke-linecap="round" fill="none"/><g transform="translate(763.863000,1166.550000)" id="shape71"><path stroke-width="2" fill-rule="nonzero" stroke="#454545" d="M4.0,.0L223.0,.0C225.2,.0,227.0,1.8,227.0,4.0L227.0,44.0C227.0,46.2,225.2,48.0,223.0,48.0L4.0,48.0C1.8,48.0,.0,46.2,.0,44.0L.0,4.0C.0,1.8,1.8,.0,4.0,.0z" fill="#ffffff"/><text xml:space="preserve" style="fill:#303030;font-family:微软雅黑,PingFang SC,Mircrosoft YaHei,Arial;font-size:14.00pt;font-weight:bold"><tspan x="26.5" y="30.2" style="font-family:微软雅黑,PingFang SC,Mircrosoft YaHei,Arial">09-实例连接访问控制</tspan></text></g><g transform="translate(1015.863000,803.600000)" id="shape72"><path fill-rule="nonzero" d="M.0,.0L103.0,.0L103.0,31.5L.0,31.5L.0,.0z" fill="#ffffff"/><path stroke-width="1" stroke="#454545" d="M.0,31.5L103.0,31.5" fill="none"/><text xml:space="preserve" style="fill:#303030;font-family:微软雅黑,PingFang SC,Mircrosoft YaHei,Arial;font-size:10.00pt"><tspan x="12.5" y="19.9" style="font-family:微软雅黑,PingFang SC,Mircrosoft YaHei,Arial">pb_hba.conf </tspan></text></g><g transform="translate(1143.863000,213.300000)" id="shape73"><path fill-rule="nonzero" d="M.0,.0L49.0,.0L49.0,31.5L.0,31.5L.0,.0z" fill="#ffffff"/><path stroke-width="1" stroke="#454545" d="M.0,31.5L49.0,31.5" fill="none"/><text xml:space="preserve" style="fill:#303030;font-family:微软雅黑,PingFang SC,Mircrosoft YaHei,Arial;font-size:10.00pt"><tspan x="11.9" y="19.9" style="font-family:微软雅黑,PingFang SC,Mircrosoft YaHei,Arial">概述</tspan></text></g><g transform="translate(1143.863000,702.450000)" id="shape74"><path fill-rule="nonzero" d="M.0,.0L88.0,.0L88.0,31.5L.0,31.5L.0,.0z" fill="#ffffff"/><path stroke-width="1" stroke="#454545" d="M.0,31.5L88.0,31.5" fill="none"/><text xml:space="preserve" style="fill:#303030;font-family:微软雅黑,PingFang SC,Mircrosoft YaHei,Arial;font-size:10.00pt"><tspan x="11.0" y="19.9" style="font-family:微软雅黑,PingFang SC,Mircrosoft YaHei,Arial">相关的配置</tspan></text></g><g transform="translate(1256.863000,313.800000)" id="shape75"><path fill-rule="nonzero" d="M.0,.0L53.0,.0L53.0,31.5L.0,31.5L.0,.0z" fill="#ffffff"/><path stroke-width="1" stroke="#454545" d="M.0,31.5L53.0,31.5" fill="none"/><text xml:space="preserve" style="fill:#303030;font-family:微软雅黑,PingFang SC,Mircrosoft YaHei,Arial;font-size:10.00pt"><tspan x="11.9" y="19.9" style="font-family:微软雅黑,PingFang SC,Mircrosoft YaHei,Arial">TYPE</tspan></text></g><g transform="translate(1256.863000,474.600000)" id="shape76"><path fill-rule="nonzero" d="M.0,.0L90.0,.0L90.0,31.5L.0,31.5L.0,.0z" fill="#ffffff"/><path stroke-width="1" stroke="#454545" d="M.0,31.5L90.0,31.5" fill="none"/><text xml:space="preserve" style="fill:#303030;font-family:微软雅黑,PingFang SC,Mircrosoft YaHei,Arial;font-size:10.00pt"><tspan x="14.0" y="19.9" style="font-family:微软雅黑,PingFang SC,Mircrosoft YaHei,Arial">DATABAS</tspan><tspan x="42.4" y="38.3" style="font-family:微软雅黑,PingFang SC,Mircrosoft YaHei,Arial">E</tspan></text></g><g transform="translate(1256.863000,645.450000)" id="shape77"><path fill-rule="nonzero" d="M.0,.0L56.0,.0L56.0,31.5L.0,31.5L.0,.0z" fill="#ffffff"/><path stroke-width="1" stroke="#454545" d="M.0,31.5L56.0,31.5" fill="none"/><text xml:space="preserve" style="fill:#303030;font-family:微软雅黑,PingFang SC,Mircrosoft YaHei,Arial;font-size:10.00pt"><tspan x="11.8" y="19.9" style="font-family:微软雅黑,PingFang SC,Mircrosoft YaHei,Arial">USER</tspan></text></g><g transform="translate(1256.863000,846.450000)" id="shape78"><path fill-rule="nonzero" d="M.0,.0L83.0,.0L83.0,31.5L.0,31.5L.0,.0z" fill="#ffffff"/><path stroke-width="1" stroke="#454545" d="M.0,31.5L83.0,31.5" fill="none"/><text xml:space="preserve" style="fill:#303030;font-family:微软雅黑,PingFang SC,Mircrosoft YaHei,Arial;font-size:10.00pt"><tspan x="11.3" y="19.9" style="font-family:微软雅黑,PingFang SC,Mircrosoft YaHei,Arial">ADDRESS</tspan></text></g><g transform="translate(1256.863000,1091.100000)" id="shape79"><path fill-rule="nonzero" d="M.0,.0L81.0,.0L81.0,31.5L.0,31.5L.0,.0z" fill="#ffffff"/><path stroke-width="1" stroke="#454545" d="M.0,31.5L81.0,31.5" fill="none"/><text xml:space="preserve" style="fill:#303030;font-family:微软雅黑,PingFang SC,Mircrosoft YaHei,Arial;font-size:10.00pt"><tspan x="11.1" y="19.9" style="font-family:微软雅黑,PingFang SC,Mircrosoft YaHei,Arial">METHOD</tspan></text></g><g transform="translate(1364.863000,796.200000)" id="shape80"><path fill-rule="nonzero" d="M.0,.0L153.0,.0L153.0,31.5L.0,31.5L.0,.0z" fill="#ffffff"/><path stroke-width="1" stroke="#454545" d="M.0,31.5L153.0,31.5" fill="none"/><text xml:space="preserve" style="fill:#303030;font-family:微软雅黑,PingFang SC,Mircrosoft YaHei,Arial;font-size:10.00pt"><tspan x="16.3" y="19.9" style="font-family:微软雅黑,PingFang SC,Mircrosoft YaHei,Arial">指定连接的客户端主</tspan><tspan x="70.7" y="38.3" style="font-family:微软雅黑,PingFang SC,Mircrosoft YaHei,Arial">机</tspan></text></g><g transform="translate(1364.863000,896.700000)" id="shape81"><path fill-rule="nonzero" d="M.0,.0L49.0,.0L49.0,31.5L.0,31.5L.0,.0z" fill="#ffffff"/><path stroke-width="1" stroke="#454545" d="M.0,31.5L49.0,31.5" fill="none"/><text xml:space="preserve" style="fill:#303030;font-family:微软雅黑,PingFang SC,Mircrosoft YaHei,Arial;font-size:10.00pt"><tspan x="11.9" y="19.9" style="font-family:微软雅黑,PingFang SC,Mircrosoft YaHei,Arial">样例</tspan></text></g><g transform="translate(1438.863000,836.400000)" id="shape82"><path fill-rule="nonzero" d="M.0,.0L102.0,.0L102.0,31.5L.0,31.5L.0,.0z" fill="#ffffff"/><path stroke-width="1" stroke="#454545" d="M.0,31.5L102.0,31.5" fill="none"/><text xml:space="preserve" style="fill:#303030;font-family:微软雅黑,PingFang SC,Mircrosoft YaHei,Arial;font-size:10.00pt"><tspan x="12.4" y="19.9" style="font-family:微软雅黑,PingFang SC,Mircrosoft YaHei,Arial">127.0.0.1/32</tspan></text></g><g transform="translate(1565.863000,836.400000)" id="shape83"><path fill-rule="nonzero" d="M.0,.0L101.0,.0L101.0,31.5L.0,31.5L.0,.0z" fill="#ffffff"/><path stroke-width="1" stroke="#454545" d="M.0,31.5L101.0,31.5" fill="none"/><text xml:space="preserve" style="fill:#303030;font-family:微软雅黑,PingFang SC,Mircrosoft YaHei,Arial;font-size:10.00pt"><tspan x="10.7" y="19.9" style="font-family:微软雅黑,PingFang SC,Mircrosoft YaHei,Arial">表示本地连接</tspan></text></g><g transform="translate(1438.863000,876.600000)" id="shape84"><path fill-rule="nonzero" d="M.0,.0L181.0,.0L181.0,31.5L.0,31.5L.0,.0z" fill="#ffffff"/><path stroke-width="1" stroke="#454545" d="M.0,31.5L181.0,31.5" fill="none"/><text xml:space="preserve" style="fill:#303030;font-family:微软雅黑,PingFang SC,Mircrosoft YaHei,Arial;font-size:10.00pt"><tspan x="17.1" y="19.9" style="font-family:微软雅黑,PingFang SC,Mircrosoft YaHei,Arial">0.0.0.0/0   表示所有的主</tspan><tspan x="84.7" y="38.3" style="font-family:微软雅黑,PingFang SC,Mircrosoft YaHei,Arial">机</tspan></text></g><g transform="translate(1362.863000,997.200000)" id="shape85"><path fill-rule="nonzero" d="M.0,.0L101.0,.0L101.0,31.5L.0,31.5L.0,.0z" fill="#ffffff"/><path stroke-width="1" stroke="#454545" d="M.0,31.5L101.0,31.5" fill="none"/><text xml:space="preserve" style="fill:#303030;font-family:微软雅黑,PingFang SC,Mircrosoft YaHei,Arial;font-size:10.00pt"><tspan x="10.7" y="19.9" style="font-family:微软雅黑,PingFang SC,Mircrosoft YaHei,Arial">指定验证方式</tspan></text></g><g transform="translate(1362.863000,1185.000000)" id="shape86"><path fill-rule="nonzero" d="M.0,.0L81.0,.0L81.0,31.5L.0,31.5L.0,.0z" fill="#ffffff"/><path stroke-width="1" stroke="#454545" d="M.0,31.5L81.0,31.5" fill="none"/><text xml:space="preserve" style="fill:#303030;font-family:微软雅黑,PingFang SC,Mircrosoft YaHei,Arial;font-size:10.00pt"><tspan x="10.7" y="19.9" style="font-family:微软雅黑,PingFang SC,Mircrosoft YaHei,Arial">样例/取值</tspan></text></g><g transform="translate(1468.863000,1037.400000)" id="shape87"><path fill-rule="nonzero" d="M.0,.0L51.6,.0L51.6,30.5L.0,30.5L.0,.0z" fill="#ffffff"/><path stroke-width="1" stroke="#454545" d="M.0,30.5L51.6,30.5" fill="none"/><text xml:space="preserve" style="fill:#303030;font-family:微软雅黑,PingFang SC,Mircrosoft YaHei,Arial;font-size:10.00pt"><tspan x="12.4" y="19.4" style="font-family:微软雅黑,PingFang SC,Mircrosoft YaHei,Arial">trust</tspan></text></g><g transform="translate(1468.863000,1076.600000)" id="shape88"><path fill-rule="nonzero" d="M.0,.0L51.1,.0L51.1,30.5L.0,30.5L.0,.0z" fill="#ffffff"/><path stroke-width="1" stroke="#454545" d="M.0,30.5L51.1,30.5" fill="none"/><text xml:space="preserve" style="fill:#303030;font-family:微软雅黑,PingFang SC,Mircrosoft YaHei,Arial;font-size:10.00pt"><tspan x="11.7" y="19.4" style="font-family:微软雅黑,PingFang SC,Mircrosoft YaHei,Arial">md5</tspan></text></g><g transform="translate(1468.863000,1116.800000)" id="shape89"><path fill-rule="nonzero" d="M.0,.0L115.1,.0L115.1,30.5L.0,30.5L.0,.0z" fill="#ffffff"/><path stroke-width="1" stroke="#454545" d="M.0,30.5L115.1,30.5" fill="none"/><text xml:space="preserve" style="fill:#303030;font-family:微软雅黑,PingFang SC,Mircrosoft YaHei,Arial;font-size:10.00pt"><tspan x="10.9" y="19.4" style="font-family:微软雅黑,PingFang SC,Mircrosoft YaHei,Arial">scram-sha-256</tspan></text></g><g transform="translate(1468.863000,1156.000000)" id="shape90"><path fill-rule="nonzero" d="M.0,.0L81.0,.0L81.0,31.5L.0,31.5L.0,.0z" fill="#ffffff"/><path stroke-width="1" stroke="#454545" d="M.0,31.5L81.0,31.5" fill="none"/><text xml:space="preserve" style="fill:#303030;font-family:微软雅黑,PingFang SC,Mircrosoft YaHei,Arial;font-size:10.00pt"><tspan x="10.7" y="19.9" style="font-family:微软雅黑,PingFang SC,Mircrosoft YaHei,Arial">password</tspan></text></g><g transform="translate(1468.863000,1234.200000)" id="shape91"><path fill-rule="nonzero" d="M.0,.0L54.0,.0L54.0,31.5L.0,31.5L.0,.0z" fill="#ffffff"/><path stroke-width="1" stroke="#454545" d="M.0,31.5L54.0,31.5" fill="none"/><text xml:space="preserve" style="fill:#00b0f0;font-family:微软雅黑,PingFang SC,Mircrosoft YaHei,Arial;font-size:10.00pt"><tspan x="11.2" y="19.9" style="font-family:微软雅黑,PingFang SC,Mircrosoft YaHei,Arial">ident</tspan></text></g><g transform="translate(1468.863000,1274.400000)" id="shape92"><path fill-rule="nonzero" d="M.0,.0L160.0,.0L160.0,31.5L.0,31.5L.0,.0z" fill="#ffffff"/><path stroke-width="1" stroke="#454545" d="M.0,31.5L160.0,31.5" fill="none"/><text xml:space="preserve" style="fill:#303030;font-family:微软雅黑,PingFang SC,Mircrosoft YaHei,Arial;font-size:10.00pt"><tspan x="15.8" y="19.9" style="font-family:微软雅黑,PingFang SC,Mircrosoft YaHei,Arial">reject   拒绝所有的请</tspan><tspan x="74.2" y="38.3" style="font-family:微软雅黑,PingFang SC,Mircrosoft YaHei,Arial">求</tspan></text></g><g transform="translate(1015.863000,1514.500000)" id="shape93"><path fill-rule="nonzero" d="M.0,.0L49.0,.0L49.0,31.5L.0,31.5L.0,.0z" fill="#ffffff"/><path stroke-width="1" stroke="#454545" d="M.0,31.5L49.0,31.5" fill="none"/><text xml:space="preserve" style="fill:#303030;font-family:微软雅黑,PingFang SC,Mircrosoft YaHei,Arial;font-size:10.00pt"><tspan x="11.9" y="19.9" style="font-family:微软雅黑,PingFang SC,Mircrosoft YaHei,Arial">实验</tspan></text></g><g transform="translate(1089.863000,1454.200000)" id="shape94"><path fill-rule="nonzero" d="M.0,.0L114.0,.0L114.0,31.5L.0,31.5L.0,.0z" fill="#ffffff"/><path stroke-width="1" stroke="#454545" d="M.0,31.5L114.0,31.5" fill="none"/><text xml:space="preserve" style="fill:#303030;font-family:微软雅黑,PingFang SC,Mircrosoft YaHei,Arial;font-size:10.00pt"><tspan x="17.2" y="19.9" style="font-family:微软雅黑,PingFang SC,Mircrosoft YaHei,Arial">本地无密码登</tspan><tspan x="51.2" y="38.3" style="font-family:微软雅黑,PingFang SC,Mircrosoft YaHei,Arial">录</tspan></text></g><g transform="translate(1217.863000,233.400000)" id="shape95"><path fill-rule="nonzero" d="M.0,.0L184.0,.0L184.0,31.5L.0,31.5L.0,.0z" fill="#ffffff"/><path stroke-width="1" stroke="#454545" d="M.0,31.5L184.0,31.5" fill="none"/><text xml:space="preserve" style="fill:#303030;font-family:微软雅黑,PingFang SC,Mircrosoft YaHei,Arial;font-size:10.00pt"><tspan x="14.2" y="19.9" style="font-family:微软雅黑,PingFang SC,Mircrosoft YaHei,Arial">通过pg_ctl reload 命令生</tspan><tspan x="86.2" y="38.3" style="font-family:微软雅黑,PingFang SC,Mircrosoft YaHei,Arial">效</tspan></text></g><g transform="translate(1217.863000,193.200000)" id="shape96"><path fill-rule="nonzero" d="M.0,.0L507.0,.0L507.0,31.5L.0,31.5L.0,.0z" fill="#ffffff"/><path stroke-width="1" stroke="#454545" d="M.0,31.5L507.0,31.5" fill="none"/><text xml:space="preserve" style="fill:#303030;font-family:微软雅黑,PingFang SC,Mircrosoft YaHei,Arial;font-size:10.00pt"><tspan x="14.5" y="19.9" style="font-family:微软雅黑,PingFang SC,Mircrosoft YaHei,Arial">客户端认证是有一个配置文件pg_hba.conf控制的，其中的HBA 表示基于主机的</tspan><tspan x="240.9" y="38.3" style="font-family:微软雅黑,PingFang SC,Mircrosoft YaHei,Arial">认证</tspan></text></g><g transform="translate(1334.863000,273.600000)" id="shape97"><path fill-rule="nonzero" d="M.0,.0L101.0,.0L101.0,31.5L.0,31.5L.0,.0z" fill="#ffffff"/><path stroke-width="1" stroke="#454545" d="M.0,31.5L101.0,31.5" fill="none"/><text xml:space="preserve" style="fill:#303030;font-family:微软雅黑,PingFang SC,Mircrosoft YaHei,Arial;font-size:10.00pt"><tspan x="10.7" y="19.9" style="font-family:微软雅黑,PingFang SC,Mircrosoft YaHei,Arial">指定连接类型</tspan></text></g><g transform="translate(1334.863000,354.000000)" id="shape98"><path fill-rule="nonzero" d="M.0,.0L49.0,.0L49.0,31.5L.0,31.5L.0,.0z" fill="#ffffff"/><path stroke-width="1" stroke="#454545" d="M.0,31.5L49.0,31.5" fill="none"/><text xml:space="preserve" style="fill:#303030;font-family:微软雅黑,PingFang SC,Mircrosoft YaHei,Arial;font-size:10.00pt"><tspan x="11.9" y="19.9" style="font-family:微软雅黑,PingFang SC,Mircrosoft YaHei,Arial">取值</tspan></text></g><g transform="translate(1408.863000,313.800000)" id="shape99"><path fill-rule="nonzero" d="M.0,.0L51.0,.0L51.0,31.5L.0,31.5L.0,.0z" fill="#ffffff"/><path stroke-width="1" stroke="#454545" d="M.0,31.5L51.0,31.5" fill="none"/><text xml:space="preserve" style="fill:#303030;font-family:微软雅黑,PingFang SC,Mircrosoft YaHei,Arial;font-size:10.00pt"><tspan x="10.9" y="19.9" style="font-family:微软雅黑,PingFang SC,Mircrosoft YaHei,Arial">local</tspan></text></g><g transform="translate(1408.863000,354.000000)" id="shape100"><path fill-rule="nonzero" d="M.0,.0L50.0,.0L50.0,31.5L.0,31.5L.0,.0z" fill="#ffffff"/><path stroke-width="1" stroke="#454545" d="M.0,31.5L50.0,31.5" fill="none"/><text xml:space="preserve" style="fill:#303030;font-family:微软雅黑,PingFang SC,Mircrosoft YaHei,Arial;font-size:10.00pt"><tspan x="10.7" y="19.9" style="font-family:微软雅黑,PingFang SC,Mircrosoft YaHei,Arial">host</tspan></text></g><g transform="translate(1089.863000,1494.400000)" id="shape101"><path fill-rule="nonzero" d="M.0,.0L114.0,.0L114.0,31.5L.0,31.5L.0,.0z" fill="#ffffff"/><path stroke-width="1" stroke="#454545" d="M.0,31.5L114.0,31.5" fill="none"/><text xml:space="preserve" style="fill:#303030;font-family:微软雅黑,PingFang SC,Mircrosoft YaHei,Arial;font-size:10.00pt"><tspan x="17.2" y="19.9" style="font-family:微软雅黑,PingFang SC,Mircrosoft YaHei,Arial">本地有密码登</tspan><tspan x="51.2" y="38.3" style="font-family:微软雅黑,PingFang SC,Mircrosoft YaHei,Arial">录</tspan></text></g><g transform="translate(1371.863000,434.400000)" id="shape102"><path fill-rule="nonzero" d="M.0,.0L140.0,.0L140.0,31.5L.0,31.5L.0,.0z" fill="#ffffff"/><path stroke-width="1" stroke="#454545" d="M.0,31.5L140.0,31.5" fill="none"/><text xml:space="preserve" style="fill:#303030;font-family:微软雅黑,PingFang SC,Mircrosoft YaHei,Arial;font-size:10.00pt"><tspan x="16.6" y="19.9" style="font-family:微软雅黑,PingFang SC,Mircrosoft YaHei,Arial">指定要访问的数据</tspan><tspan x="64.2" y="38.3" style="font-family:微软雅黑,PingFang SC,Mircrosoft YaHei,Arial">库</tspan></text></g><g transform="translate(1371.863000,514.800000)" id="shape103"><path fill-rule="nonzero" d="M.0,.0L49.0,.0L49.0,31.5L.0,31.5L.0,.0z" fill="#ffffff"/><path stroke-width="1" stroke="#454545" d="M.0,31.5L49.0,31.5" fill="none"/><text xml:space="preserve" style="fill:#303030;font-family:微软雅黑,PingFang SC,Mircrosoft YaHei,Arial;font-size:10.00pt"><tspan x="11.9" y="19.9" style="font-family:微软雅黑,PingFang SC,Mircrosoft YaHei,Arial">取值</tspan></text></g><g transform="translate(1089.863000,1534.600000)" id="shape104"><path fill-rule="nonzero" d="M.0,.0L205.0,.0L205.0,31.5L.0,31.5L.0,.0z" fill="#ffffff"/><path stroke-width="1" stroke="#454545" d="M.0,31.5L205.0,31.5" fill="none"/><text xml:space="preserve" style="fill:#303030;font-family:微软雅黑,PingFang SC,Mircrosoft YaHei,Arial;font-size:10.00pt"><tspan x="15.1" y="19.9" style="font-family:微软雅黑,PingFang SC,Mircrosoft YaHei,Arial">允许所有主机连接所有的数据</tspan><tspan x="96.7" y="38.3" style="font-family:微软雅黑,PingFang SC,Mircrosoft YaHei,Arial">库</tspan></text></g><g transform="translate(1319.863000,1534.600000)" id="shape105"><path fill-rule="nonzero" d="M.0,.0L179.0,.0L179.0,31.5L.0,31.5L.0,.0z" fill="#ffffff"/><path stroke-width="1" stroke="#454545" d="M.0,31.5L179.0,31.5" fill="none"/><text xml:space="preserve" style="fill:#303030;font-family:微软雅黑,PingFang SC,Mircrosoft YaHei,Arial;font-size:10.00pt"><tspan x="27.7" y="19.9" style="font-family:微软雅黑,PingFang SC,Mircrosoft YaHei,Arial">host all all 0.0.0.0/0  </tspan><tspan x="75.7" y="38.3" style="font-family:微软雅黑,PingFang SC,Mircrosoft YaHei,Arial">md5</tspan></text></g><g transform="translate(1243.863000,1373.800000)" id="shape106"><path fill-rule="nonzero" d="M.0,.0L348.0,.0L348.0,31.5L.0,31.5L.0,.0z" fill="#ffffff"/><path stroke-width="1" stroke="#454545" d="M.0,31.5L348.0,31.5" fill="none"/><text xml:space="preserve" style="fill:#303030;font-family:微软雅黑,PingFang SC,Mircrosoft YaHei,Arial;font-size:10.00pt"><tspan x="11.8" y="19.9" style="font-family:微软雅黑,PingFang SC,Mircrosoft YaHei,Arial">当定义的规则有重叠的时候，定义的越精细，优先级越</tspan><tspan x="168.2" y="38.3" style="font-family:微软雅黑,PingFang SC,Mircrosoft YaHei,Arial">高</tspan></text></g><g transform="translate(1243.863000,1414.000000)" id="shape107"><path fill-rule="nonzero" d="M.0,.0L465.0,.0L465.0,31.5L.0,31.5L.0,.0z" fill="#ffffff"/><path stroke-width="1" stroke="#454545" d="M.0,31.5L465.0,31.5" fill="none"/><text xml:space="preserve" style="fill:#303030;font-family:微软雅黑,PingFang SC,Mircrosoft YaHei,Arial;font-size:10.00pt"><tspan x="15.9" y="19.9" style="font-family:微软雅黑,PingFang SC,Mircrosoft YaHei,Arial">定义规则的先后顺序会影响最后的访问效果，越精细的效果，越应该在最</tspan><tspan x="219.9" y="38.3" style="font-family:微软雅黑,PingFang SC,Mircrosoft YaHei,Arial">前面</tspan></text></g><g transform="translate(1089.863000,1574.800000)" id="shape108"><path fill-rule="nonzero" d="M.0,.0L140.0,.0L140.0,31.5L.0,31.5L.0,.0z" fill="#ffffff"/><path stroke-width="1" stroke="#454545" d="M.0,31.5L140.0,31.5" fill="none"/><text xml:space="preserve" style="fill:#303030;font-family:微软雅黑,PingFang SC,Mircrosoft YaHei,Arial;font-size:10.00pt"><tspan x="16.6" y="19.9" style="font-family:微软雅黑,PingFang SC,Mircrosoft YaHei,Arial">禁止所有的远程连</tspan><tspan x="64.2" y="38.3" style="font-family:微软雅黑,PingFang SC,Mircrosoft YaHei,Arial">接</tspan></text></g><g transform="translate(1228.863000,1454.200000)" id="shape109"><path fill-rule="nonzero" d="M.0,.0L378.0,.0L378.0,31.5L.0,31.5L.0,.0z" fill="#ffffff"/><path stroke-width="1" stroke="#454545" d="M.0,31.5L378.0,31.5" fill="none"/><text xml:space="preserve" style="fill:#303030;font-family:微软雅黑,PingFang SC,Mircrosoft YaHei,Arial;font-size:10.00pt"><tspan x="44.4" y="19.9" style="font-family:微软雅黑,PingFang SC,Mircrosoft YaHei,Arial">local	all	all		trusts</tspan></text></g><g transform="translate(1228.863000,1495.400000)" id="shape110"><path fill-rule="nonzero" d="M.0,.0L371.1,.0L371.1,30.5L.0,30.5L.0,.0z" fill="#ffffff"/><path stroke-width="1" stroke="#454545" d="M.0,30.5L371.1,30.5" fill="none"/><text xml:space="preserve" style="fill:#303030;font-family:微软雅黑,PingFang SC,Mircrosoft YaHei,Arial;font-size:10.00pt"><tspan x="43.7" y="19.4" style="font-family:微软雅黑,PingFang SC,Mircrosoft YaHei,Arial">local	all	all		md5</tspan></text></g><g transform="translate(1545.488000,1037.400000)" id="shape111"><path fill-rule="nonzero" d="M.0,.0L179.0,.0L179.0,30.5L.0,30.5L.0,.0z" fill="#ffffff"/><path stroke-width="1" stroke="#454545" d="M.0,30.5L179.0,30.5" fill="none"/><text xml:space="preserve" style="fill:#303030;font-family:微软雅黑,PingFang SC,Mircrosoft YaHei,Arial;font-size:10.00pt"><tspan x="15.7" y="19.4" style="font-family:微软雅黑,PingFang SC,Mircrosoft YaHei,Arial">不需要输入密码就可以登</tspan><tspan x="83.7" y="37.8" style="font-family:微软雅黑,PingFang SC,Mircrosoft YaHei,Arial">录</tspan></text></g><g transform="translate(1544.956800,1076.600000)" id="shape112"><path fill-rule="nonzero" d="M.0,.0L140.0,.0L140.0,30.5L.0,30.5L.0,.0z" fill="#ffffff"/><path stroke-width="1" stroke="#454545" d="M.0,30.5L140.0,30.5" fill="none"/><text xml:space="preserve" style="fill:#303030;font-family:微软雅黑,PingFang SC,Mircrosoft YaHei,Arial;font-size:10.00pt"><tspan x="16.6" y="19.4" style="font-family:微软雅黑,PingFang SC,Mircrosoft YaHei,Arial">需要输入正常的密</tspan><tspan x="64.2" y="37.8" style="font-family:微软雅黑,PingFang SC,Mircrosoft YaHei,Arial">码</tspan></text></g><g transform="translate(1143.863000,1393.900000)" id="shape113"><path fill-rule="nonzero" d="M.0,.0L75.0,.0L75.0,31.5L.0,31.5L.0,.0z" fill="#ffffff"/><path stroke-width="1" stroke="#454545" d="M.0,31.5L75.0,31.5" fill="none"/><text xml:space="preserve" style="fill:#303030;font-family:微软雅黑,PingFang SC,Mircrosoft YaHei,Arial;font-size:10.00pt"><tspan x="11.3" y="19.9" style="font-family:微软雅黑,PingFang SC,Mircrosoft YaHei,Arial">配置建议</tspan></text></g><g transform="translate(1484.863000,313.800000)" id="shape114"><path fill-rule="nonzero" d="M.0,.0L206.0,.0L206.0,31.5L.0,31.5L.0,.0z" fill="#ffffff"/><path stroke-width="1" stroke="#454545" d="M.0,31.5L206.0,31.5" fill="none"/><text xml:space="preserve" style="fill:#303030;font-family:微软雅黑,PingFang SC,Mircrosoft YaHei,Arial;font-size:10.00pt"><tspan x="14.8" y="19.9" style="font-family:微软雅黑,PingFang SC,Mircrosoft YaHei,Arial">本地连接，通过socket进行连</tspan><tspan x="97.2" y="38.3" style="font-family:微软雅黑,PingFang SC,Mircrosoft YaHei,Arial">接</tspan></text></g><g transform="translate(1483.863000,354.000000)" id="shape115"><path fill-rule="nonzero" d="M.0,.0L487.0,.0L487.0,31.5L.0,31.5L.0,.0z" fill="#ffffff"/><path stroke-width="1" stroke="#454545" d="M.0,31.5L487.0,31.5" fill="none"/><text xml:space="preserve" style="fill:#303030;font-family:微软雅黑,PingFang SC,Mircrosoft YaHei,Arial;font-size:10.00pt"><tspan x="15.3" y="19.9" style="font-family:微软雅黑,PingFang SC,Mircrosoft YaHei,Arial">远程连接，通过tcp/ip进行连接， 通过-h 指定ip 或主机名来标志是通过远程</tspan><tspan x="230.9" y="38.3" style="font-family:微软雅黑,PingFang SC,Mircrosoft YaHei,Arial">连接</tspan></text></g><g transform="translate(1445.863000,474.600000)" id="shape116"><path fill-rule="nonzero" d="M.0,.0L36.0,.0L36.0,31.5L.0,31.5L.0,.0z" fill="#ffffff"/><path stroke-width="1" stroke="#454545" d="M.0,31.5L36.0,31.5" fill="none"/><text xml:space="preserve" style="fill:#303030;font-family:微软雅黑,PingFang SC,Mircrosoft YaHei,Arial;font-size:10.00pt"><tspan x="11.4" y="19.9" style="font-family:微软雅黑,PingFang SC,Mircrosoft YaHei,Arial">all</tspan></text></g><g transform="translate(1445.863000,514.800000)" id="shape117"><path fill-rule="nonzero" d="M.0,.0L183.0,.0L183.0,31.5L.0,31.5L.0,.0z" fill="#ffffff"/><path stroke-width="1" stroke="#454545" d="M.0,31.5L183.0,31.5" fill="none"/><text xml:space="preserve" style="fill:#303030;font-family:微软雅黑,PingFang SC,Mircrosoft YaHei,Arial;font-size:10.00pt"><tspan x="14.9" y="19.9" style="font-family:微软雅黑,PingFang SC,Mircrosoft YaHei,Arial">db_name，具体的数据库</tspan><tspan x="85.7" y="38.3" style="font-family:微软雅黑,PingFang SC,Mircrosoft YaHei,Arial">名</tspan></text></g><g transform="translate(1337.863000,595.200000)" id="shape118"><path fill-rule="nonzero" d="M.0,.0L127.0,.0L127.0,31.5L.0,31.5L.0,.0z" fill="#ffffff"/><path stroke-width="1" stroke="#454545" d="M.0,31.5L127.0,31.5" fill="none"/><text xml:space="preserve" style="fill:#303030;font-family:微软雅黑,PingFang SC,Mircrosoft YaHei,Arial;font-size:10.00pt"><tspan x="16.9" y="19.9" style="font-family:微软雅黑,PingFang SC,Mircrosoft YaHei,Arial">指定连接的用户</tspan><tspan x="57.7" y="38.3" style="font-family:微软雅黑,PingFang SC,Mircrosoft YaHei,Arial">名</tspan></text></g><g transform="translate(1337.863000,695.700000)" id="shape119"><path fill-rule="nonzero" d="M.0,.0L49.0,.0L49.0,31.5L.0,31.5L.0,.0z" fill="#ffffff"/><path stroke-width="1" stroke="#454545" d="M.0,31.5L49.0,31.5" fill="none"/><text xml:space="preserve" style="fill:#303030;font-family:微软雅黑,PingFang SC,Mircrosoft YaHei,Arial;font-size:10.00pt"><tspan x="11.9" y="19.9" style="font-family:微软雅黑,PingFang SC,Mircrosoft YaHei,Arial">取值</tspan></text></g><g transform="translate(1411.863000,635.400000)" id="shape120"><path fill-rule="nonzero" d="M.0,.0L36.0,.0L36.0,31.5L.0,31.5L.0,.0z" fill="#ffffff"/><path stroke-width="1" stroke="#454545" d="M.0,31.5L36.0,31.5" fill="none"/><text xml:space="preserve" style="fill:#303030;font-family:微软雅黑,PingFang SC,Mircrosoft YaHei,Arial;font-size:10.00pt"><tspan x="11.4" y="19.9" style="font-family:微软雅黑,PingFang SC,Mircrosoft YaHei,Arial">all</tspan></text></g><g transform="translate(1411.863000,675.600000)" id="shape121"><path fill-rule="nonzero" d="M.0,.0L89.0,.0L89.0,31.5L.0,31.5L.0,.0z" fill="#ffffff"/><path stroke-width="1" stroke="#454545" d="M.0,31.5L89.0,31.5" fill="none"/><text xml:space="preserve" style="fill:#303030;font-family:微软雅黑,PingFang SC,Mircrosoft YaHei,Arial;font-size:10.00pt"><tspan x="10.7" y="19.9" style="font-family:微软雅黑,PingFang SC,Mircrosoft YaHei,Arial">user_name</tspan></text></g><g transform="translate(1438.863000,916.800000)" id="shape122"><path fill-rule="nonzero" d="M.0,.0L90.0,.0L90.0,31.5L.0,31.5L.0,.0z" fill="#ffffff"/><path stroke-width="1" stroke="#454545" d="M.0,31.5L90.0,31.5" fill="none"/><text xml:space="preserve" style="fill:#303030;font-family:微软雅黑,PingFang SC,Mircrosoft YaHei,Arial;font-size:10.00pt"><tspan x="10.8" y="19.9" style="font-family:微软雅黑,PingFang SC,Mircrosoft YaHei,Arial">host_name</tspan></text></g><g transform="translate(1408.863000,394.200000)" id="shape123"><path fill-rule="nonzero" d="M.0,.0L65.0,.0L65.0,31.5L.0,31.5L.0,.0z" fill="#ffffff"/><path stroke-width="1" stroke="#454545" d="M.0,31.5L65.0,31.5" fill="none"/><text xml:space="preserve" style="fill:#00b0f0;font-family:微软雅黑,PingFang SC,Mircrosoft YaHei,Arial;font-size:10.00pt"><tspan x="11.1" y="19.9" style="font-family:微软雅黑,PingFang SC,Mircrosoft YaHei,Arial">hostssl</tspan></text></g><g transform="translate(1498.863000,394.200000)" id="shape124"><path fill-rule="nonzero" d="M.0,.0L241.0,.0L241.0,31.5L.0,31.5L.0,.0z" fill="#ffffff"/><path stroke-width="1" stroke="#454545" d="M.0,31.5L241.0,31.5" fill="none"/><text xml:space="preserve" style="fill:#303030;font-family:微软雅黑,PingFang SC,Mircrosoft YaHei,Arial;font-size:10.00pt"><tspan x="14.7" y="19.9" style="font-family:微软雅黑,PingFang SC,Mircrosoft YaHei,Arial">表示主机连接需要SSL，加密方式连</tspan><tspan x="114.7" y="38.3" style="font-family:微软雅黑,PingFang SC,Mircrosoft YaHei,Arial">接</tspan></text></g><g transform="translate(1445.863000,555.000000)" id="shape125"><path fill-rule="nonzero" d="M.0,.0L87.0,.0L87.0,31.5L.0,31.5L.0,.0z" fill="#ffffff"/><path stroke-width="1" stroke="#454545" d="M.0,31.5L87.0,31.5" fill="none"/><text xml:space="preserve" style="fill:#303030;font-family:微软雅黑,PingFang SC,Mircrosoft YaHei,Arial;font-size:10.00pt"><tspan x="13.7" y="19.9" style="font-family:微软雅黑,PingFang SC,Mircrosoft YaHei,Arial">replicatio</tspan><tspan x="40.5" y="38.3" style="font-family:微软雅黑,PingFang SC,Mircrosoft YaHei,Arial">n</tspan></text></g><g transform="translate(1557.863000,555.000000)" id="shape126"><path fill-rule="nonzero" d="M.0,.0L153.0,.0L153.0,31.5L.0,31.5L.0,.0z" fill="#ffffff"/><path stroke-width="1" stroke="#454545" d="M.0,31.5L153.0,31.5" fill="none"/><text xml:space="preserve" style="fill:#303030;font-family:微软雅黑,PingFang SC,Mircrosoft YaHei,Arial;font-size:10.00pt"><tspan x="16.3" y="19.9" style="font-family:微软雅黑,PingFang SC,Mircrosoft YaHei,Arial">表示主备复制时的连</tspan><tspan x="70.7" y="38.3" style="font-family:微软雅黑,PingFang SC,Mircrosoft YaHei,Arial">接</tspan></text></g><g transform="translate(1525.863000,675.600000)" id="shape127"><path fill-rule="nonzero" d="M.0,.0L290.0,.0L290.0,31.5L.0,31.5L.0,.0z" fill="#ffffff"/><path stroke-width="1" stroke="#454545" d="M.0,31.5L290.0,31.5" fill="none"/><text xml:space="preserve" style="fill:#303030;font-family:微软雅黑,PingFang SC,Mircrosoft YaHei,Arial;font-size:10.00pt"><tspan x="14.8" y="19.9" style="font-family:微软雅黑,PingFang SC,Mircrosoft YaHei,Arial">登录用户(通过原命令\du 可以查看有哪些用</tspan><tspan x="136.8" y="38.3" style="font-family:微软雅黑,PingFang SC,Mircrosoft YaHei,Arial">户)</tspan></text></g><g transform="translate(1411.863000,715.800000)" id="shape128"><path fill-rule="nonzero" d="M.0,.0L110.0,.0L110.0,31.5L.0,31.5L.0,.0z" fill="#ffffff"/><path stroke-width="1" stroke="#454545" d="M.0,31.5L110.0,31.5" fill="none"/><rect x="24.4" y="5.5" width="73.6" height="18.4" fill="#00ffff"/><rect x="52.0" y="23.9" width="8.0" height="18.4" fill="#00ffff"/><text xml:space="preserve" style="fill:#303030;font-family:微软雅黑,PingFang SC,Mircrosoft YaHei,Arial;font-size:10.00pt"><tspan x="14.0" y="19.9" style="font-family:微软雅黑,PingFang SC,Mircrosoft YaHei,Arial">+</tspan><tspan x="24.4" style="font-family:微软雅黑,PingFang SC,Mircrosoft YaHei,Arial">group_nam</tspan><tspan x="52.0" y="38.3" style="font-family:微软雅黑,PingFang SC,Mircrosoft YaHei,Arial">e</tspan></text></g><g transform="translate(1546.863000,715.800000)" id="shape129"><path fill-rule="nonzero" d="M.0,.0L101.0,.0L101.0,31.5L.0,31.5L.0,.0z" fill="#ffffff"/><path stroke-width="1" stroke="#454545" d="M.0,31.5L101.0,31.5" fill="none"/><text xml:space="preserve" style="fill:#303030;font-family:微软雅黑,PingFang SC,Mircrosoft YaHei,Arial;font-size:10.00pt"><tspan x="10.7" y="19.9" style="font-family:微软雅黑,PingFang SC,Mircrosoft YaHei,Arial">表示一组用户</tspan></text></g><g transform="translate(1411.863000,756.000000)" id="shape130"><path fill-rule="nonzero" d="M.0,.0L94.0,.0L94.0,31.5L.0,31.5L.0,.0z" fill="#ffffff"/><path stroke-width="1" stroke="#454545" d="M.0,31.5L94.0,31.5" fill="none"/><text xml:space="preserve" style="fill:#00b0f0;font-family:微软雅黑,PingFang SC,Mircrosoft YaHei,Arial;font-size:10.00pt"><tspan x="13.2" y="19.9" style="font-family:微软雅黑,PingFang SC,Mircrosoft YaHei,Arial">@file_nam</tspan><tspan x="44.0" y="38.3" style="font-family:微软雅黑,PingFang SC,Mircrosoft YaHei,Arial">e</tspan></text></g><g transform="translate(1530.863000,756.000000)" id="shape131"><path fill-rule="nonzero" d="M.0,.0L179.0,.0L179.0,31.5L.0,31.5L.0,.0z" fill="#ffffff"/><path stroke-width="1" stroke="#454545" d="M.0,31.5L179.0,31.5" fill="none"/><text xml:space="preserve" style="fill:#303030;font-family:微软雅黑,PingFang SC,Mircrosoft YaHei,Arial;font-size:10.00pt"><tspan x="15.7" y="19.9" style="font-family:微软雅黑,PingFang SC,Mircrosoft YaHei,Arial">表示文件中包含的用户列</tspan><tspan x="83.7" y="38.3" style="font-family:微软雅黑,PingFang SC,Mircrosoft YaHei,Arial">表</tspan></text></g><g transform="translate(1553.863000,916.800000)" id="shape132"><path fill-rule="nonzero" d="M.0,.0L233.0,.0L233.0,31.5L.0,31.5L.0,.0z" fill="#ffffff"/><path stroke-width="1" stroke="#454545" d="M.0,31.5L233.0,31.5" fill="none"/><text xml:space="preserve" style="fill:#303030;font-family:微软雅黑,PingFang SC,Mircrosoft YaHei,Arial;font-size:10.00pt"><tspan x="16.3" y="19.9" style="font-family:微软雅黑,PingFang SC,Mircrosoft YaHei,Arial">表示指定的主机名(hosts文件中包</tspan><tspan x="108.3" y="38.3" style="font-family:微软雅黑,PingFang SC,Mircrosoft YaHei,Arial">含)</tspan></text></g><g transform="translate(1438.863000,957.000000)" id="shape133"><path fill-rule="nonzero" d="M.0,.0L132.0,.0L132.0,31.5L.0,31.5L.0,.0z" fill="#ffffff"/><path stroke-width="1" stroke="#454545" d="M.0,31.5L132.0,31.5" fill="none"/><text xml:space="preserve" style="fill:#303030;font-family:微软雅黑,PingFang SC,Mircrosoft YaHei,Arial;font-size:10.00pt"><tspan x="39.8" y="19.9" style="font-family:微软雅黑,PingFang SC,Mircrosoft YaHei,Arial">ip_addr/</tspan><tspan x="36.6" y="38.3" style="font-family:微软雅黑,PingFang SC,Mircrosoft YaHei,Arial">net_mask</tspan></text></g><g transform="translate(1595.863000,957.000000)" id="shape134"><path fill-rule="nonzero" d="M.0,.0L165.0,.0L165.0,31.5L.0,31.5L.0,.0z" fill="#ffffff"/><path stroke-width="1" stroke="#454545" d="M.0,31.5L165.0,31.5" fill="none"/><text xml:space="preserve" style="fill:#303030;font-family:微软雅黑,PingFang SC,Mircrosoft YaHei,Arial;font-size:10.00pt"><tspan x="16.3" y="19.9" style="font-family:微软雅黑,PingFang SC,Mircrosoft YaHei,Arial">表示指定IP地址或者网</tspan><tspan x="76.7" y="38.3" style="font-family:微软雅黑,PingFang SC,Mircrosoft YaHei,Arial">段</tspan></text></g><g transform="translate(1608.926000,1115.800000)" id="shape135"><path fill-rule="nonzero" d="M.0,.0L426.0,.0L426.0,31.5L.0,31.5L.0,.0z" fill="#ffffff"/><path stroke-width="1" stroke="#454545" d="M.0,31.5L426.0,31.5" fill="none"/><text xml:space="preserve" style="fill:#303030;font-family:微软雅黑,PingFang SC,Mircrosoft YaHei,Arial;font-size:10.00pt"><tspan x="16.8" y="19.9" style="font-family:微软雅黑,PingFang SC,Mircrosoft YaHei,Arial">这是当前提供的方法中最安全的一种，但是旧的客户端不支持这种</tspan><tspan x="200.4" y="38.3" style="font-family:微软雅黑,PingFang SC,Mircrosoft YaHei,Arial">方法</tspan></text></g><g transform="translate(1547.863000,1196.200000)" id="shape136"><path fill-rule="nonzero" d="M.0,.0L515.0,.0L515.0,69.5L.0,69.5L.0,.0z" fill="#ffffff"/><path stroke-width="1" stroke="#454545" d="M.0,69.5L515.0,69.5" fill="none"/><text xml:space="preserve" style="fill:#303030;font-family:微软雅黑,PingFang SC,Mircrosoft YaHei,Arial;font-size:10.00pt"><tspan x="23.3" y="19.9" style="font-family:微软雅黑,PingFang SC,Mircrosoft YaHei,Arial">该模式下系统会将请求发起者的操作系统用户映射为PostgreSQL数据库内部用</tspan><tspan x="13.7" y="38.3" style="font-family:微软雅黑,PingFang SC,Mircrosoft YaHei,Arial">户，并以该内部用户的权限登录。此时无效提供密码，操作系统用户与数据库内部</tspan><tspan x="100.9" y="56.6" style="font-family:微软雅黑,PingFang SC,Mircrosoft YaHei,Arial">用户之间的映射关系会记录在 pg_ident.conf 文件中</tspan></text></g><g transform="translate(1468.863000,1333.600000)" id="shape137"><path fill-rule="nonzero" d="M.0,.0L50.0,.0L50.0,31.5L.0,31.5L.0,.0z" fill="#ffffff"/><path stroke-width="1" stroke="#454545" d="M.0,31.5L50.0,31.5" fill="none"/><text xml:space="preserve" style="fill:#303030;font-family:微软雅黑,PingFang SC,Mircrosoft YaHei,Arial;font-size:10.00pt"><tspan x="11.2" y="19.9" style="font-family:微软雅黑,PingFang SC,Mircrosoft YaHei,Arial">peer</tspan></text></g><g transform="translate(1543.863000,1314.600000)" id="shape138"><path fill-rule="nonzero" d="M.0,.0L515.0,.0L515.0,50.5L.0,50.5L.0,.0z" fill="#ffffff"/><path stroke-width="1" stroke="#454545" d="M.0,50.5L515.0,50.5" fill="none"/><text xml:space="preserve" style="fill:#303030;font-family:微软雅黑,PingFang SC,Mircrosoft YaHei,Arial;font-size:10.00pt"><tspan x="22.1" y="19.9" style="font-family:微软雅黑,PingFang SC,Mircrosoft YaHei,Arial">该模式使用连接发起端的操作系统名进行身份验证，仅限 Linux， BSD， MAC </tspan><tspan x="102.9" y="38.3" style="font-family:微软雅黑,PingFang SC,Mircrosoft YaHei,Arial">OS 和Solaris，并且仅可用于本地服务器发起的连接</tspan></text></g><g transform="translate(1254.863000,1574.800000)" id="shape139"><path fill-rule="nonzero" d="M.0,.0L377.0,.0L377.0,31.5L.0,31.5L.0,.0z" fill="#ffffff"/><path stroke-width="1" stroke="#454545" d="M.0,31.5L377.0,31.5" fill="none"/><text xml:space="preserve" style="fill:#303030;font-family:微软雅黑,PingFang SC,Mircrosoft YaHei,Arial;font-size:10.00pt"><tspan x="43.1" y="19.9" style="font-family:微软雅黑,PingFang SC,Mircrosoft YaHei,Arial">local	all	all	0.0.0.0/0	reject</tspan></text></g></g></svg>